<svg width="37" height="40" viewBox="0 0 37 40" fill="none" xmlns="http://www.w3.org/2000/svg">
<path d="M4.86724 20.0244C1.53709 23.517 -1.63061 29.1214 2.83666 30.8271C2.51177 33.2638 5.11091 34.7258 6.65415 33.5886C5.35458 33.6699 4.3799 32.8576 4.21745 31.9642C3.73011 29.9336 6.4917 28.9589 7.38515 30.7458C7.79127 31.5581 7.62882 32.7764 6.57292 33.5074C7.5476 33.4262 8.6035 32.5327 8.6035 31.0707C9.41573 30.9895 10.3092 30.8271 11.1214 30.6646C11.9336 33.8323 13.5581 38.3808 16.5634 39.6804C20.787 41.4673 23.6298 35.3756 24.6857 30.9895C29.7215 32.2079 36.3818 31.9642 35.2447 26.9284C36.463 26.1974 36.8691 24.8978 36.6255 23.9231C36.3006 25.3851 34.9198 26.2786 33.7827 26.1161C31.1023 25.8725 31.1023 21.9737 33.7827 21.7301C34.9198 21.5676 36.2194 22.3799 36.6255 23.9231C37.194 21.5676 34.27 19.3746 31.7521 21.0803C31.5084 20.7554 31.1835 20.4305 30.9399 20.1056C33.7014 17.5065 37.4377 12.958 35.6508 9.62784C33.7827 6.21647 27.7722 7.19114 24.0359 8.24704C23.8734 7.84093 23.7922 7.43481 23.6298 7.0287C25.0918 6.37891 25.5791 4.59201 24.7669 3.45488C24.8481 4.75445 24.0359 5.72913 23.1424 5.89158C22.249 6.13524 21.3555 5.56668 21.1119 4.83568C20.3808 2.88632 23.2237 1.42431 24.7669 3.45488C24.6857 1.83042 22.6551 0.774521 20.9494 1.7492C19.5686 0.0435136 18.1066 -0.281379 16.807 0.205959C14.0454 1.26186 12.421 5.40424 11.5275 8.16582C-0.168593 4.99812 -3.98608 11.3335 4.86724 20.0244ZM16.5634 11.4147C14.8577 12.3082 13.2332 13.2017 11.69 14.2576C11.8524 12.7955 12.0149 11.3335 12.3398 9.87151C14.4516 10.6025 15.5887 11.0899 16.5634 11.4147ZM25.0106 15.8008C25.0918 18.3187 25.0918 20.8366 24.7669 23.5982C22.7363 25.0602 20.6245 26.3598 18.3503 27.4969C15.9948 26.3598 13.8018 25.0602 11.6088 23.517C11.3651 20.9991 11.3651 18.3999 11.5275 15.882C13.7206 14.5012 15.9136 13.2017 18.269 12.1458C21.0306 13.4453 22.8988 14.5012 25.0106 15.8008ZM19.6498 11.6584C20.9494 11.0899 22.3302 10.5213 24.2796 9.95273C24.6045 11.5772 24.7669 13.2017 24.8481 14.9073C23.6298 13.9327 21.7616 12.7143 19.6498 11.6584ZM25.7416 16.3694C27.2036 17.344 28.5844 18.3187 29.8839 19.4558C28.828 20.5117 27.6097 21.5676 25.9852 22.786C25.9852 20.6742 25.9852 18.3187 25.7416 16.3694ZM23.7922 29.7712C22.249 29.2838 20.787 28.634 19.3249 27.9843C21.1119 27.172 22.8988 26.1973 24.6044 25.1414C24.442 26.6847 24.1983 27.903 23.7922 29.7712ZM16.9695 28.2279C15.5887 28.8777 14.1267 29.5275 12.6647 30.0148C12.3398 28.5528 12.0149 27.0096 11.8524 25.4663C13.4769 26.441 15.1826 27.4157 16.9695 28.2279ZM10.0655 22.4611C8.84717 21.5676 7.79127 20.6742 6.65415 19.6183C7.79127 18.6436 8.92839 17.7501 10.1467 16.9379C10.0655 18.7248 9.98429 20.593 10.0655 22.4611ZM8.68472 31.152C8.68472 27.6594 3.324 27.172 2.83666 30.8271C-1.22449 28.7965 2.2681 23.8419 5.59825 20.6742C7.79127 22.7048 9.09084 23.517 10.3092 24.4104C10.4716 26.7659 10.7965 28.7965 11.2839 30.5834C10.3092 30.7458 9.49695 30.9083 8.68472 31.152ZM17.2944 38.2996C14.9389 37.3249 13.3957 32.8576 12.7459 30.3397C14.4516 29.8524 16.1572 29.2838 17.7817 28.5528C19.6498 29.3651 21.4367 30.0961 23.4673 30.6646C22.5739 33.9135 20.3808 39.5179 17.2944 38.2996ZM31.8333 21.1615C28.3407 23.5982 31.6709 29.1214 35.3259 27.0096C35.9757 31.883 29.8027 31.4768 25.0918 30.0961C25.4979 28.0655 25.7416 26.1973 25.904 24.248C27.6097 23.1109 28.9905 22.055 30.9399 20.2681C31.1835 20.593 31.5084 20.9178 31.8333 21.1615ZM34.3512 10.5213C35.732 12.958 32.077 17.2628 30.0464 19.2122C28.6656 17.8314 27.2036 16.613 25.5791 15.3947C25.3355 13.5265 25.0106 11.6584 24.5232 9.87151C27.2848 9.1405 33.0517 8.0846 34.3512 10.5213ZM20.9494 1.91164C19.6498 2.64265 19.1625 4.18589 19.6498 5.48546C20.2996 7.19114 22.1678 7.84093 23.6298 7.19115C23.711 7.59726 23.8734 8.00338 23.9547 8.40949C21.518 9.1405 19.8123 9.87151 17.8629 10.765C16.1572 9.95273 14.3703 9.22172 12.5022 8.65316C13.9642 3.04877 17.1319 -2.14951 20.9494 1.91164ZM11.2839 9.70906C10.7965 11.7396 10.5529 13.4453 10.3092 15.3135C8.76595 16.4506 7.30393 17.5877 5.92314 18.9685C-1.38694 11.5772 0.724861 7.0287 11.2839 9.70906Z" fill="url(#paint0_linear_752_1367)"/>
<path d="M15.0202 22.9484C17.9442 25.71 22.4927 23.1921 21.8429 19.7807C21.518 21.7301 19.8123 22.9484 18.1879 22.786C16.5634 22.7048 15.2638 21.2427 15.3451 19.7807C15.2638 18.2375 16.5634 16.8567 18.1879 16.7755C19.8123 16.613 21.518 17.8314 21.8429 19.7807C22.0053 18.8061 21.7617 17.7502 21.0307 16.9379C20.3809 16.1257 19.325 15.5571 18.1879 15.4759C14.2891 15.2322 12.0149 20.1056 15.0202 22.9484Z" fill="url(#paint1_linear_752_1367)"/>
<defs>
<linearGradient id="paint0_linear_752_1367" x1="37.5164" y1="5.5" x2="-11.9836" y2="38" gradientUnits="userSpaceOnUse">
<stop offset="0.0784704" stop-color="#CD8CEF"/>
<stop offset="1" stop-color="#31E0DB"/>
</linearGradient>
<linearGradient id="paint1_linear_752_1367" x1="22.0902" y1="16.6578" x2="11.2096" y2="24.0927" gradientUnits="userSpaceOnUse">
<stop offset="0.0784704" stop-color="#CD8CEF"/>
<stop offset="1" stop-color="#31E0DB"/>
</linearGradient>
</defs>
</svg>
